<?xml version="1.0"?>
<svg xmlns="http://www.w3.org/2000/svg" xmlns:xlink="http://www.w3.org/1999/xlink" version="1.1" id="Layer_1" x="0px" y="0px" viewBox="0 0 512.001 512.001" style="enable-background:new 0 0 512.001 512.001;" xml:space="preserve" width="512px" height="512px" class=""><g transform="matrix(-1.83697e-16 1 1 1.83697e-16 1.13687e-13 -9.40531e-14)"><g>
	<g>
		<path d="M337.623,356.606c-12.384-5.358-20.387-17.611-20.387-31.219V186.612c0-13.608,8.002-25.862,20.387-31.219    c30.361-13.132,49.538-42.993,48.856-76.075c-0.883-42.842-35.104-77.658-77.907-79.261c-16.548-0.61-32.612,3.721-46.491,12.545    c-3.694,2.349-8.466,2.35-12.161,0c-13.881-8.826-29.953-13.156-46.492-12.545c-42.803,1.603-77.023,36.419-77.907,79.261    c-0.681,33.083,18.495,62.943,48.856,76.075c12.385,5.358,20.388,17.611,20.388,31.219v138.776    c0,13.608-8.003,25.862-20.388,31.219c-30.36,13.132-49.538,42.992-48.856,76.075c0.882,42.842,35.104,77.658,77.907,79.261    c16.534,0.616,32.611-3.719,46.492-12.545c3.693-2.348,8.465-2.348,12.161,0c13.012,8.274,27.951,12.603,43.392,12.603    c1.029,0,2.065-0.019,3.1-0.058c42.803-1.603,77.023-36.419,77.907-79.261C387.16,399.599,367.985,369.738,337.623,356.606z     M366.084,432.26c-0.661,32.052-26.258,58.098-58.275,59.297c-12.377,0.468-24.409-2.777-34.783-9.374    c-5.171-3.287-11.097-4.931-17.025-4.931c-5.927,0-11.854,1.644-17.025,4.931c-10.375,6.596-22.408,9.838-34.783,9.374    c-32.017-1.199-57.616-27.246-58.276-59.297c-0.51-24.759,13.841-47.106,36.56-56.932c19.857-8.589,32.689-28.192,32.689-49.94    V186.612c0-21.749-12.831-41.352-32.689-49.94c-22.72-9.826-37.07-32.173-36.56-56.932c0.66-32.052,26.258-58.098,58.275-59.297    c12.386-0.464,24.41,2.778,34.783,9.374c10.342,6.575,23.708,6.576,34.05,0c10.374-6.596,22.403-9.846,34.783-9.374    c32.017,1.199,57.615,27.246,58.275,59.297c0.511,24.759-13.841,47.105-36.56,56.932c-19.858,8.589-32.688,28.192-32.688,49.94    v138.776c0,21.749,12.831,41.352,32.688,49.94C352.243,385.154,366.595,407.501,366.084,432.26z" data-original="#000000" class="active-path" data-old_color="#000000" fill="#343434"/>
	</g>
</g><g>
	<g>
		<path d="M182.564,50.04c-4.457-3.446-10.863-2.625-14.307,1.831c-6.505,8.414-9.944,18.495-9.944,29.152    c0,5.633,4.566,10.199,10.199,10.199c5.633,0,10.199-4.566,10.199-10.198c0-6.1,1.965-11.867,5.684-16.677    C187.84,59.892,187.021,53.485,182.564,50.04z" data-original="#000000" class="active-path" data-old_color="#000000" fill="#343434"/>
	</g>
</g><g>
	<g>
		<path d="M206.006,33.329c-2.209,0-4.434,0.153-6.611,0.456c-5.579,0.775-9.473,5.927-8.698,11.506    c0.709,5.103,5.079,8.797,10.089,8.797c0.468,0,0.941-0.033,1.417-0.098c1.251-0.174,2.53-0.262,3.803-0.262    c5.633,0,10.199-4.566,10.199-10.199C216.205,37.895,211.639,33.329,206.006,33.329z" data-original="#000000" class="active-path" data-old_color="#000000" fill="#343434"/>
	</g>
</g></g> </svg>
