<?xml version="1.0" encoding="utf-8"?>
<!-- Generator: Adobe Illustrator 16.0.0, SVG Export Plug-In . SVG Version: 6.00 Build 0)  -->
<!DOCTYPE svg PUBLIC "-//W3C//DTD SVG 1.1//EN" "http://www.w3.org/Graphics/SVG/1.1/DTD/svg11.dtd">
<svg version="1.1" id="Layer_1" xmlns="http://www.w3.org/2000/svg" xmlns:xlink="http://www.w3.org/1999/xlink" x="0px" y="0px"
	 width="16px" height="16px" viewBox="0 0 16 16" enable-background="new 0 0 16 16" xml:space="preserve">
<g>
	<path fill-rule="evenodd" clip-rule="evenodd" fill="#333333" d="M41.246,10.561l0.143-1.15L38.77,8.724L37.83,5.25l0.963-2.402
		C39.477,2.797,40,2.498,40.059,2.068l0.629-4.21l-3.686-0.551l-0.035,0.225l-6.476-1.574l-0.004-0.001v0l-0.002,0l-0.004,0.018
		l-1.573,3.924c-0.579,1.437,0.395,2.403,1.368,2.799l2.937,1.17h-0.039l-0.001,5.924l-0.985,0.144v2.021h2.637v-0.578h2.273v0.572
		h2.699V9.984l-0.713-0.109l-0.18-0.66L41.246,10.561z M29.357,0.105l0.396,0.956l1.057-0.96l0.445,1.826l1.486-1.358l0.613,1.109
		l0.43-0.237L32.87-0.213l-1.334,1.218l-0.444-1.824l-1.151,1.047l-0.322-0.777l1.041-2.598l2.036,0.933l0.648-0.626l3.552,0.863
		l-0.523,3.495c-0.076,0.554,0.83,1.178,1.797,1.312c0.033,0.004,0.064,0.007,0.098,0.01l-0.869,2.166L30.52,2.263
		C28.991,1.647,29.225,0.497,29.357,0.105z M34.188,11.312H32.84v-0.863l1.347-0.117V11.312z M39.061,11.319h-1.297v-0.979
		l1.297,0.217V11.319z M37.096,9.57v1.183l-2.273,0V9.55L33.797,9.7V4.101l3.447,1.374l1.162,4.296L37.096,9.57z"/>
	<path fill-rule="evenodd" clip-rule="evenodd" fill="#333333" d="M35.4-0.545c0-0.189,0.141-0.343,0.316-0.343
		s0.318,0.153,0.318,0.343c0,0.001,0,0.002,0,0.002c0.066-0.107,0.1-0.214,0.105-0.318c-0.158-0.326-0.264-0.57-0.594-0.598
		c-0.352-0.029-0.938,0.472-1.156,0.673c0.013,0.079,0.039,0.156,0.08,0.23c0.072,0.21,0.236,0.381,0.506,0.451
		c0.184,0.047,0.449-0.004,0.669-0.107C35.505-0.248,35.4-0.383,35.4-0.545z"/>
</g>
<path fill-rule="evenodd" clip-rule="evenodd" fill="#333333" d="M13.28,15.28c0,0.396-0.324,0.72-0.72,0.72H3.439
	c-0.396,0-0.72-0.324-0.72-0.72V6.16c0-0.396,0.324-0.72,0.72-0.72h9.121c0.396,0,0.72,0.324,0.72,0.72V15.28z"/>
<path fill-rule="evenodd" clip-rule="evenodd" fill="#333333" d="M1.446,8.893c-0.792,0-1.026-0.494-0.52-1.097l6.154-7.345
	c0.506-0.604,1.333-0.604,1.839,0l6.154,7.345c0.506,0.604,0.271,1.097-0.52,1.097H1.446z"/>
<g>
	<path fill-rule="evenodd" clip-rule="evenodd" fill="#333333" d="M-2.146,13.531c0,0.275-0.225,0.5-0.5,0.5h-6.334
		c-0.275,0-0.5-0.225-0.5-0.5V7.198c0-0.275,0.225-0.5,0.5-0.5h6.334c0.275,0,0.5,0.225,0.5,0.5V13.531z"/>
</g>
<g>
	<path fill-rule="evenodd" clip-rule="evenodd" fill="#333333" d="M-10.364,9.096c-0.55,0-0.713-0.346-0.361-0.77l4.274-5.152
		c0.352-0.423,0.926-0.423,1.277,0L-0.9,8.326c0.352,0.423,0.188,0.77-0.361,0.77H-10.364z"/>
</g>
<path fill-rule="evenodd" clip-rule="evenodd" fill="#FFFFFF" d="M8,10.364c-1.104,0-2,0.896-2,2V16h4v-3.636
	C10,11.26,9.104,10.364,8,10.364z"/>
</svg>
