<?xml version="1.0" encoding="utf-8"?>
<!-- Generator: Adobe Illustrator 16.0.0, SVG Export Plug-In . SVG Version: 6.00 Build 0)  -->
<!DOCTYPE svg PUBLIC "-//W3C//DTD SVG 1.1//EN" "http://www.w3.org/Graphics/SVG/1.1/DTD/svg11.dtd">
<svg version="1.1" id="Layer_1" xmlns="http://www.w3.org/2000/svg" xmlns:xlink="http://www.w3.org/1999/xlink" x="0px" y="0px"
	 width="16px" height="16px" viewBox="0 0 16 16" enable-background="new 0 0 16 16" xml:space="preserve">
<g>
	<path fill-rule="evenodd" clip-rule="evenodd" fill="#333333" d="M41.246,10.561l0.143-1.15L38.77,8.724L37.83,5.25l0.963-2.402
		C39.477,2.797,40,2.498,40.059,2.068l0.629-4.21l-3.686-0.551l-0.035,0.225l-6.476-1.574l-0.004-0.001v0l-0.002,0l-0.004,0.018
		l-1.573,3.924c-0.579,1.437,0.395,2.403,1.368,2.799l2.937,1.17h-0.039l-0.001,5.924l-0.985,0.144v2.021h2.637v-0.578h2.273v0.572
		h2.699V9.984l-0.713-0.109l-0.18-0.66L41.246,10.561z M29.357,0.105l0.396,0.956l1.057-0.96l0.445,1.826l1.486-1.358l0.613,1.109
		l0.43-0.237L32.87-0.213l-1.334,1.218l-0.444-1.824l-1.151,1.047l-0.322-0.777l1.041-2.598l2.036,0.933l0.648-0.626l3.552,0.863
		l-0.523,3.495c-0.076,0.554,0.83,1.178,1.797,1.312c0.033,0.004,0.064,0.007,0.098,0.01l-0.869,2.166L30.52,2.263
		C28.991,1.647,29.225,0.497,29.357,0.105z M34.188,11.312H32.84v-0.863l1.347-0.117V11.312z M39.061,11.319h-1.297v-0.979
		l1.297,0.217V11.319z M37.096,9.57v1.183l-2.273,0V9.55L33.797,9.7V4.101l3.447,1.374l1.162,4.296L37.096,9.57z"/>
	<path fill-rule="evenodd" clip-rule="evenodd" fill="#333333" d="M35.4-0.545c0-0.189,0.141-0.343,0.316-0.343
		s0.318,0.153,0.318,0.343c0,0.001,0,0.002,0,0.002c0.066-0.107,0.1-0.214,0.105-0.318c-0.158-0.326-0.264-0.57-0.594-0.598
		c-0.352-0.029-0.938,0.472-1.156,0.673c0.013,0.079,0.039,0.156,0.08,0.23c0.072,0.21,0.236,0.381,0.506,0.451
		c0.184,0.047,0.449-0.004,0.669-0.107C35.505-0.248,35.4-0.383,35.4-0.545z"/>
</g>
<g>
	<path fill-rule="evenodd" clip-rule="evenodd" fill="#333333" d="M-2.146,13.531c0,0.275-0.225,0.5-0.5,0.5h-6.334
		c-0.275,0-0.5-0.225-0.5-0.5V7.198c0-0.275,0.225-0.5,0.5-0.5h6.334c0.275,0,0.5,0.225,0.5,0.5V13.531z"/>
</g>
<g>
	<path fill-rule="evenodd" clip-rule="evenodd" fill="#333333" d="M-10.364,9.096c-0.55,0-0.713-0.346-0.361-0.77l4.274-5.152
		c0.352-0.423,0.926-0.423,1.277,0L-0.9,8.326c0.352,0.423,0.188,0.77-0.361,0.77H-10.364z"/>
</g>
<g>
	<defs>
		<rect id="SVGID_1_" width="16" height="16"/>
	</defs>
	<clipPath id="SVGID_2_">
		<use xlink:href="#SVGID_1_"  overflow="visible"/>
	</clipPath>
	<path clip-path="url(#SVGID_2_)" fill="#FFFFFF" d="M8,16c4.418,0,8-3.582,8-8s-3.582-8-8-8S0,3.582,0,8S3.582,16,8,16"/>
	<path clip-path="url(#SVGID_2_)" fill="#3D3D3E" d="M8,14.819c-3.76,0-6.819-3.059-6.819-6.819S4.24,1.181,8,1.181
		S14.819,4.24,14.819,8S11.76,14.819,8,14.819z M8,1.378c-3.651,0-6.622,2.97-6.622,6.622S4.349,14.622,8,14.622
		s6.622-2.97,6.622-6.622S11.651,1.378,8,1.378z"/>
	<path clip-path="url(#SVGID_2_)" fill="#3D3D3E" d="M11.857,5.862h-0.296v4.362c0,0.051-0.037,0.095-0.087,0.103l-0.761,0.121
		l1.145-0.105V5.862z M4.143,10.343l1.145,0.105l-0.761-0.121c-0.05-0.008-0.087-0.052-0.087-0.103V5.862H4.143V10.343z
		 M4.647,5.112v0.496c0.003,0.014,0.005,0.03,0.005,0.045c0,0.016-0.002,0.032-0.005,0.046v4.435l3.249,0.521V5.633L4.647,5.112z
		 M11.353,5.112L8.104,5.633v5.023l3.249-0.521V5.7c-0.003-0.015-0.005-0.03-0.005-0.046c0-0.016,0.002-0.031,0.005-0.045V5.112z
		 M12.273,5.654v4.878c0,0.108-0.082,0.197-0.189,0.207l-4.065,0.375C8.012,11.114,8.007,11.114,8,11.114s-0.012,0-0.019-0.001
		l-4.065-0.375c-0.107-0.009-0.189-0.099-0.189-0.207V5.654c0-0.114,0.093-0.207,0.208-0.207h0.504V4.99
		c0-0.031,0.014-0.06,0.037-0.079C4.499,4.891,4.53,4.882,4.56,4.887L8,5.438l3.44-0.551c0.03-0.005,0.061,0.004,0.084,0.024
		c0.022,0.02,0.037,0.048,0.037,0.079v0.457h0.504C12.18,5.447,12.273,5.54,12.273,5.654 M5.071,9.473l2.366,0.394
		c0.006,0.001,0.012,0.002,0.018,0.002c0.05,0,0.094-0.037,0.103-0.086c0.009-0.057-0.029-0.111-0.085-0.121L5.105,9.268
		c-0.056-0.01-0.11,0.029-0.119,0.085C4.977,9.409,5.015,9.463,5.071,9.473 M5.071,8.642l2.366,0.395
		c0.006,0.001,0.012,0.001,0.018,0.001c0.05,0,0.094-0.037,0.103-0.087c0.009-0.057-0.029-0.11-0.085-0.12L5.105,8.436
		c-0.056-0.009-0.11,0.029-0.119,0.086C4.977,8.579,5.015,8.632,5.071,8.642 M5.071,7.81l2.366,0.395
		c0.006,0,0.012,0.001,0.018,0.001c0.05,0,0.094-0.037,0.103-0.087C7.566,8.063,7.528,8.009,7.472,8L5.105,7.604
		C5.049,7.595,4.996,7.634,4.986,7.69C4.977,7.747,5.015,7.8,5.071,7.81 M5.071,6.979l2.366,0.395
		c0.006,0.001,0.012,0.002,0.018,0.002c0.05,0,0.094-0.037,0.103-0.087c0.009-0.056-0.029-0.11-0.085-0.12L5.105,6.773
		c-0.056-0.009-0.11,0.029-0.119,0.084C4.977,6.915,5.015,6.969,5.071,6.979 M5.071,6.147l2.366,0.395
		c0.006,0,0.012,0.001,0.018,0.001c0.05,0,0.094-0.036,0.103-0.087c0.009-0.056-0.029-0.109-0.085-0.119L5.105,5.942
		c-0.056-0.01-0.11,0.029-0.119,0.085C4.977,6.084,5.015,6.138,5.071,6.147 M8.545,9.869c0.006,0,0.011-0.001,0.018-0.002
		l2.366-0.394c0.056-0.01,0.094-0.064,0.084-0.12c-0.009-0.056-0.063-0.095-0.119-0.085L8.528,9.662
		C8.472,9.671,8.434,9.726,8.443,9.783C8.451,9.833,8.496,9.869,8.545,9.869 M8.545,9.038c0.006,0,0.011,0,0.018-0.001l2.366-0.395
		c0.056-0.01,0.094-0.063,0.084-0.12c-0.009-0.057-0.063-0.095-0.119-0.086L8.528,8.831C8.472,8.84,8.434,8.894,8.443,8.951
		C8.451,9.001,8.496,9.038,8.545,9.038 M8.545,8.206c0.006,0,0.011-0.001,0.018-0.001l2.366-0.395
		c0.056-0.009,0.094-0.063,0.084-0.12c-0.009-0.056-0.063-0.095-0.119-0.085L8.528,8C8.472,8.009,8.434,8.063,8.443,8.119
		C8.451,8.169,8.496,8.206,8.545,8.206 M8.545,7.375c0.006,0,0.011-0.001,0.018-0.002l2.366-0.395
		c0.056-0.009,0.094-0.063,0.084-0.121c-0.009-0.055-0.063-0.094-0.119-0.084L8.528,7.167c-0.056,0.01-0.095,0.064-0.085,0.12
		C8.451,7.338,8.496,7.375,8.545,7.375 M8.443,6.456C8.434,6.399,8.472,6.346,8.528,6.336l2.366-0.395
		c0.056-0.01,0.11,0.029,0.119,0.085c0.01,0.057-0.029,0.111-0.084,0.12L8.563,6.542c-0.006,0-0.012,0.001-0.018,0.001
		C8.496,6.543,8.451,6.507,8.443,6.456"/>
</g>
</svg>
