<svg id="Layer_1" data-name="Layer 1" xmlns="http://www.w3.org/2000/svg" viewBox="0 0 69.49 87.85"><defs><style>.cls-1{fill:#333;fill-rule:evenodd;}</style></defs><title>sobakaisti</title><path class="cls-1" d="M22.1,72.95l-1,3.62-3.91.6V88H32V84.83H44.51V88H59V76.9l-5.41-.79V43.59h-.22l16.12-6.43C74.82,35,80.17,29.68,77,21.79L68.36.25l0-.1h0L32.73,8.8l-.19-1.24-20.24,3,3.46,23.12c.33,2.36,3.2,4,6.95,4.29L28,51.18,22.83,70.25,8.46,74l.79,6.31Zm46-38.17L30.38,49.83,25.61,37.94l.53-.06c5.31-.74,10.29-4.16,9.87-7.2L33.13,11.49l19.5-4.74,3.56,3.44L67.37,5.07l5.72,14.27-1.77,4.27L65,17.86l-2.44,10-7.33-6.69-5,9.08,2.36,1.3,3.37-6.09,8.16,7.45,2.44-10,5.8,5.27,2.17-5.25C75.25,25.08,76.53,31.4,68.14,34.78ZM48,79.08l7.4.64v4.74H48ZM21.24,80.32l7.13-1.19V84.5H21.24ZM24.83,76l6.39-23.59,18.93-7.55V75.61l-5.64-.82v6.6H32V74.9Z" transform="translate(-8.46 -0.15)"/><path class="cls-1" d="M43.66,21.77A6,6,0,0,1,40,21.19a1.85,1.85,0,0,0,1.35-1.83,1.75,1.75,0,1,0-3.49,0v0a3.7,3.7,0,0,1-.58-1.75c.87-1.79,1.45-3.13,3.25-3.29s5.15,2.59,6.35,3.69a3.79,3.79,0,0,1-.44,1.26A3.79,3.79,0,0,1,43.66,21.77Z" transform="translate(-8.46 -0.15)"/></svg>