<?xml version="1.0" encoding="utf-8"?>
<!-- Generator: Adobe Illustrator 16.0.0, SVG Export Plug-In . SVG Version: 6.00 Build 0)  -->
<!DOCTYPE svg PUBLIC "-//W3C//DTD SVG 1.1//EN" "http://www.w3.org/Graphics/SVG/1.1/DTD/svg11.dtd">
<svg version="1.1" id="Layer_1" xmlns="http://www.w3.org/2000/svg" xmlns:xlink="http://www.w3.org/1999/xlink" x="0px" y="0px"
	 width="16px" height="16px" viewBox="0 0 16 16" enable-background="new 0 0 16 16" xml:space="preserve">
<g>
	<defs>
		<rect id="SVGID_1_" width="16" height="16"/>
	</defs>
	<clipPath id="SVGID_2_">
		<use xlink:href="#SVGID_1_"  overflow="visible"/>
	</clipPath>
	<path clip-path="url(#SVGID_2_)" fill="#FFFFFF" d="M8,16c4.418,0,8-3.582,8-8s-3.582-8-8-8S0,3.582,0,8S3.582,16,8,16"/>
	<path clip-path="url(#SVGID_2_)" fill="#3D3D3E" d="M8,14.819c-3.76,0-6.819-3.059-6.819-6.819S4.24,1.181,8,1.181
		S14.819,4.24,14.819,8S11.76,14.819,8,14.819z M8,1.378c-3.651,0-6.622,2.97-6.622,6.622S4.349,14.622,8,14.622
		s6.622-2.97,6.622-6.622S11.651,1.378,8,1.378z"/>
</g>
<g>
	<defs>
		<rect id="SVGID_3_" x="4.023" y="4.292" width="7.25" height="7.14"/>
	</defs>
	<clipPath id="SVGID_4_">
		<use xlink:href="#SVGID_3_"  overflow="visible"/>
	</clipPath>
	<path clip-path="url(#SVGID_4_)" fill="#3D3D3E" d="M6.316,8.718l0,0.401C5.932,8.785,5.33,8.776,4.822,9.073
		c-0.061,0.034-0.12,0.072-0.176,0.116C4.61,9.217,4.575,9.246,4.541,9.276C4.498,9.316,4.457,9.357,4.419,9.4
		c0,0-0.001,0.001-0.001,0.001C4.38,9.443,4.345,9.486,4.313,9.531l0,0c-0.059,0.081-0.109,0.165-0.15,0.25
		c-0.219,0.458-0.186,0.971,0.131,1.313c0.418,0.451,1.178,0.445,1.75,0.005c0.036-0.028,0.07-0.057,0.104-0.087
		c0.105-0.096,0.193-0.2,0.267-0.311c0.066-0.099,0.12-0.204,0.16-0.31c0.003-0.01,0.007-0.02,0.01-0.03
		c0.014-0.041,0.027-0.083,0.038-0.124c0.003-0.013,0.007-0.025,0.01-0.039c0.011-0.051,0.021-0.102,0.026-0.153l0.005,0.001V9.983
		c0.003-0.049,0.003-0.097,0-0.146V9.365V8.689l0-1.077l0.001-0.681L6.665,6.466l1.05-0.188l0,0l1.562-0.279l0.063-0.012
		l1.585-0.283v0.492l0,0.546v0.419v0.645l0,0.904c-0.409-0.357-1.066-0.342-1.593,0.017C9.305,8.745,9.277,8.76,9.252,8.779
		C9.216,8.806,9.181,8.835,9.147,8.866C9.095,8.914,9.046,8.965,9.001,9.018C8.99,9.031,8.979,9.044,8.969,9.058
		C8.926,9.11,8.888,9.163,8.853,9.219c0,0.001-0.002,0.001-0.002,0.003C8.824,9.265,8.8,9.308,8.779,9.352
		c-0.229,0.462-0.2,0.985,0.122,1.332c0.418,0.452,1.178,0.445,1.75,0.005c0.035-0.027,0.07-0.056,0.104-0.087
		c0.057-0.052,0.108-0.109,0.156-0.166c0.02-0.024,0.04-0.049,0.059-0.075c0.019-0.026,0.036-0.052,0.053-0.08
		c0.047-0.072,0.088-0.146,0.122-0.223c0-0.001,0.001-0.001,0.001-0.003c0.048-0.11,0.088-0.223,0.107-0.336
		c0.015-0.089,0.022-0.178,0.019-0.266h0l0.001-0.376V7.883V7.238V6.945l0-0.676V5.643V5.621V4.292L6.358,5.17L6.317,5.166l0,0.237
		l0,0.679V6.97v0.677v0.389L6.316,8.718z"/>
</g>
</svg>
