<?xml version="1.0" encoding="utf-8"?>
<!-- Generator: Adobe Illustrator 16.0.0, SVG Export Plug-In . SVG Version: 6.00 Build 0)  -->
<!DOCTYPE svg PUBLIC "-//W3C//DTD SVG 1.1//EN" "http://www.w3.org/Graphics/SVG/1.1/DTD/svg11.dtd">
<svg version="1.1" id="Layer_1" xmlns="http://www.w3.org/2000/svg" xmlns:xlink="http://www.w3.org/1999/xlink" x="0px" y="0px"
	 width="16px" height="16px" viewBox="0 0 16 16" enable-background="new 0 0 16 16" xml:space="preserve">
<g>
	<defs>
		<rect id="SVGID_1_" width="16" height="16"/>
	</defs>
	<clipPath id="SVGID_2_">
		<use xlink:href="#SVGID_1_"  overflow="visible"/>
	</clipPath>
	<path clip-path="url(#SVGID_2_)" fill="#FFFFFF" d="M8,16c4.418,0,8-3.582,8-8s-3.582-8-8-8S0,3.582,0,8S3.582,16,8,16"/>
	<path clip-path="url(#SVGID_2_)" fill="#3D3D3E" d="M8,14.819c-3.76,0-6.819-3.059-6.819-6.819S4.24,1.181,8,1.181
		S14.819,4.24,14.819,8S11.76,14.819,8,14.819z M8,1.378c-3.651,0-6.622,2.97-6.622,6.622S4.349,14.622,8,14.622
		s6.622-2.97,6.622-6.622S11.651,1.378,8,1.378z"/>
</g>
<path fill="#3D3D3E" d="M4.54,6.089c-0.251,0-0.463,0.211-0.463,0.454v3.82c0,0.269,0.246,0.479,0.492,0.479h6.857
	c0.276,0,0.497-0.21,0.497-0.479v-3.82c0-0.243-0.187-0.454-0.433-0.454H9.664L9.542,5.458c-0.03-0.18-0.183-0.299-0.37-0.299H7.995
	H6.854c-0.188,0-0.34,0.12-0.37,0.299L6.361,6.089H4.54z M7.995,6.722c0.251,0,0.497,0.06,0.68,0.151
	c0.25,0.089,0.438,0.208,0.59,0.359c0.187,0.18,0.31,0.36,0.398,0.571c0.094,0.211,0.128,0.423,0.128,0.661
	c0,0.244-0.034,0.453-0.128,0.662C9.575,9.337,9.452,9.518,9.265,9.7c-0.153,0.149-0.34,0.269-0.59,0.359
	c-0.183,0.089-0.429,0.152-0.68,0.152c-0.212,0-0.462-0.063-0.679-0.152C7.104,9.969,6.917,9.849,6.765,9.7
	C6.577,9.518,6.454,9.337,6.361,9.126C6.267,8.918,6.238,8.709,6.238,8.465c0-0.238,0.029-0.45,0.124-0.661
	c0.093-0.211,0.216-0.391,0.403-0.571c0.152-0.151,0.339-0.271,0.551-0.359C7.533,6.782,7.783,6.722,7.995,6.722 M5.185,6.48
	c0.187,0,0.339,0.12,0.339,0.302c0,0.18-0.153,0.329-0.339,0.329c-0.183,0-0.34-0.148-0.34-0.329C4.845,6.6,5.001,6.48,5.185,6.48
	 M8.862,7.656C8.738,7.533,8.616,7.441,8.463,7.384C8.335,7.322,8.182,7.293,7.995,7.293c-0.152,0-0.305,0.028-0.462,0.091
	C7.41,7.441,7.287,7.533,7.164,7.656C7.041,7.745,6.946,7.865,6.917,8.015c-0.063,0.151-0.123,0.3-0.123,0.45
	c0,0.15,0.06,0.302,0.123,0.453c0.03,0.15,0.124,0.271,0.247,0.391C7.287,9.4,7.41,9.489,7.533,9.549
	c0.157,0.06,0.31,0.089,0.462,0.089c0.187,0,0.34-0.029,0.468-0.089c0.153-0.06,0.275-0.149,0.399-0.24
	c0.093-0.12,0.216-0.24,0.25-0.391c0.059-0.151,0.089-0.303,0.089-0.453c0-0.149-0.03-0.298-0.089-0.45
	C9.078,7.865,8.955,7.745,8.862,7.656"/>
</svg>
