<?xml version="1.0" encoding="utf-8"?>
<!-- Generator: Adobe Illustrator 16.0.0, SVG Export Plug-In . SVG Version: 6.00 Build 0)  -->
<!DOCTYPE svg PUBLIC "-//W3C//DTD SVG 1.1//EN" "http://www.w3.org/Graphics/SVG/1.1/DTD/svg11.dtd">
<svg version="1.1" id="Layer_1" xmlns="http://www.w3.org/2000/svg" xmlns:xlink="http://www.w3.org/1999/xlink" x="0px" y="0px"
	 width="64px" height="64px" viewBox="0 0 64 64" enable-background="new 0 0 64 64" xml:space="preserve">
<g>
	<path fill-rule="evenodd" clip-rule="evenodd" fill="#333333" d="M56.79,58.474l0.573-4.608l-10.495-2.757l-3.768-13.919
		l3.857-9.628c2.738-0.205,4.836-1.406,5.074-3.129l2.523-16.877L39.777,5.345l-0.135,0.903l-25.96-6.307l-0.018-0.007l-0.001,0.002
		l-0.01-0.002l-0.018,0.07L7.333,15.734c-2.319,5.759,1.583,9.63,5.482,11.22l11.771,4.692h-0.16L24.424,55.39l-3.949,0.577v8.099
		h10.568v-2.316h9.114v2.293h10.816v-7.881l-2.857-0.438L47.4,53.077L56.79,58.474z M9.137,16.565l1.587,3.831l4.236-3.85
		l1.783,7.317l5.959-5.442l2.458,4.447l1.722-0.952l-3.665-6.627l-5.35,4.884l-1.78-7.31l-4.616,4.196l-1.289-3.116L14.355,3.53
		l8.159,3.739l2.599-2.512l14.236,3.458l-2.095,14.008c-0.31,2.219,3.325,4.72,7.202,5.258c0.13,0.017,0.257,0.028,0.385,0.041
		l-3.479,8.682L13.797,25.212C7.67,22.746,8.607,18.134,9.137,16.565z M28.501,61.481h-5.402v-3.458l5.402-0.47V61.481z
		 M48.031,61.512h-5.202v-3.926l5.202,0.871V61.512z M40.157,54.504v4.741l-9.114-0.002v-4.82l-4.113,0.601V32.581l13.819,5.508
		l4.662,17.22L40.157,54.504z"/>
	<path fill-rule="evenodd" clip-rule="evenodd" fill="#333333" d="M33.358,13.957c0-0.758,0.568-1.373,1.271-1.373
		s1.273,0.615,1.273,1.373c0,0.004-0.001,0.008-0.001,0.011c0.267-0.43,0.399-0.858,0.424-1.276
		c-0.636-1.309-1.057-2.287-2.376-2.397c-1.41-0.119-3.758,1.892-4.636,2.696c0.05,0.317,0.155,0.627,0.321,0.923
		c0.29,0.843,0.948,1.526,2.028,1.806c0.733,0.19,1.797-0.016,2.679-0.429C33.778,15.15,33.358,14.608,33.358,13.957z"/>
</g>
</svg>
