<?xml version="1.0" encoding="utf-8"?>
<!-- Generator: Adobe Illustrator 16.0.0, SVG Export Plug-In . SVG Version: 6.00 Build 0)  -->
<!DOCTYPE svg PUBLIC "-//W3C//DTD SVG 1.1//EN" "http://www.w3.org/Graphics/SVG/1.1/DTD/svg11.dtd">
<svg version="1.1" id="Layer_1" xmlns="http://www.w3.org/2000/svg" xmlns:xlink="http://www.w3.org/1999/xlink" x="0px" y="0px"
	 width="202.293px" height="64px" viewBox="0 0 202.293 64" enable-background="new 0 0 202.293 64" xml:space="preserve">
<g>
	<g>
		<path fill="#fdfdff" d="M52.335,43.712c0.585,0,1.068-0.048,1.449-0.146c0.381-0.097,0.686-0.23,0.916-0.398
			C54.931,43,55.09,42.8,55.18,42.57c0.087-0.23,0.132-0.487,0.132-0.771c0-0.602-0.283-1.103-0.85-1.501
			c-0.567-0.399-1.542-0.827-2.924-1.289c-0.603-0.213-1.204-0.456-1.807-0.73c-0.603-0.274-1.142-0.62-1.62-1.036
			c-0.478-0.417-0.868-0.922-1.169-1.515c-0.302-0.594-0.452-1.316-0.452-2.166c0-0.851,0.16-1.615,0.479-2.298
			c0.317-0.681,0.771-1.261,1.354-1.74c0.585-0.479,1.294-0.846,2.126-1.102c0.833-0.258,1.771-0.386,2.816-0.386
			c1.239,0,2.313,0.132,3.215,0.398c0.904,0.265,1.647,0.558,2.231,0.877l-1.195,3.268c-0.514-0.267-1.085-0.5-1.713-0.704
			c-0.629-0.203-1.387-0.306-2.272-0.306c-0.992,0-1.704,0.138-2.138,0.413c-0.435,0.274-0.652,0.694-0.652,1.261
			c0,0.337,0.08,0.621,0.24,0.85c0.158,0.23,0.385,0.438,0.677,0.625c0.293,0.186,0.629,0.354,1.01,0.505
			c0.381,0.151,0.801,0.306,1.262,0.465c0.957,0.354,1.789,0.704,2.498,1.049c0.708,0.346,1.297,0.749,1.767,1.21
			c0.47,0.459,0.819,1.001,1.05,1.62c0.23,0.621,0.346,1.373,0.346,2.258c0,1.719-0.603,3.052-1.807,3.999
			c-1.205,0.948-3.021,1.422-5.448,1.422c-0.814,0-1.549-0.049-2.204-0.146c-0.656-0.098-1.235-0.217-1.74-0.359
			c-0.505-0.141-0.939-0.291-1.303-0.451s-0.668-0.31-0.916-0.452l1.169-3.294c0.549,0.301,1.227,0.571,2.033,0.811
			C50.18,43.593,51.167,43.712,52.335,43.712z"/>
		<path fill="#fdfdff" d="M80.313,37.655c0,1.577-0.234,2.961-0.703,4.157c-0.47,1.195-1.112,2.196-1.927,3.002
			s-1.784,1.413-2.91,1.82c-1.124,0.408-2.333,0.612-3.626,0.612c-1.258,0-2.444-0.204-3.56-0.612
			c-1.116-0.407-2.091-1.014-2.924-1.82c-0.832-0.806-1.486-1.807-1.966-3.002c-0.478-1.196-0.717-2.581-0.717-4.157
			c0-1.577,0.248-2.963,0.743-4.159c0.496-1.195,1.165-2.2,2.006-3.015c0.841-0.815,1.815-1.425,2.924-1.834
			c1.105-0.406,2.271-0.61,3.493-0.61c1.258,0,2.443,0.204,3.561,0.61c1.116,0.409,2.089,1.019,2.923,1.834
			c0.832,0.814,1.487,1.819,1.965,3.015C80.074,34.692,80.313,36.078,80.313,37.655z M66.258,37.655
			c0,0.903,0.109,1.718,0.333,2.444c0.221,0.726,0.539,1.351,0.955,1.873c0.416,0.522,0.926,0.926,1.528,1.209
			c0.602,0.284,1.292,0.425,2.072,0.425c0.762,0,1.448-0.141,2.06-0.425s1.124-0.687,1.541-1.209
			c0.415-0.521,0.734-1.146,0.956-1.873c0.221-0.727,0.332-1.542,0.332-2.444c0-0.904-0.111-1.722-0.332-2.458
			c-0.222-0.735-0.541-1.364-0.956-1.887c-0.417-0.522-0.93-0.925-1.541-1.208s-1.298-0.425-2.06-0.425
			c-0.78,0-1.471,0.146-2.072,0.438c-0.603,0.292-1.112,0.7-1.528,1.222c-0.416,0.522-0.734,1.152-0.955,1.887
			C66.367,35.959,66.258,36.769,66.258,37.655z"/>
		<path fill="#fdfdff" d="M89.904,47.113c-1.009,0-2.015-0.031-3.016-0.093c-1-0.063-2.041-0.208-3.121-0.439V28.728
			c0.851-0.16,1.78-0.279,2.789-0.358c1.01-0.08,1.948-0.12,2.816-0.12c1.17,0,2.245,0.085,3.229,0.253
			c0.982,0.169,1.828,0.457,2.537,0.863c0.709,0.409,1.262,0.943,1.66,1.608c0.399,0.664,0.599,1.483,0.599,2.458
			c0,1.47-0.708,2.63-2.125,3.479c1.169,0.443,1.965,1.046,2.391,1.807c0.426,0.762,0.638,1.622,0.638,2.578
			c0,1.931-0.704,3.383-2.112,4.358C94.78,46.626,92.686,47.113,89.904,47.113z M87.806,35.688h2.02
			c1.275,0,2.187-0.163,2.736-0.491c0.549-0.328,0.823-0.854,0.823-1.581c0-0.745-0.283-1.266-0.85-1.567
			c-0.567-0.301-1.399-0.452-2.497-0.452c-0.354,0-0.735,0.004-1.143,0.013c-0.408,0.01-0.771,0.032-1.09,0.067V35.688z
			 M87.806,38.851v4.756c0.301,0.036,0.629,0.063,0.982,0.08c0.354,0.018,0.744,0.026,1.17,0.026c1.239,0,2.24-0.177,3.002-0.531
			c0.762-0.354,1.143-1.01,1.143-1.966c0-0.851-0.319-1.457-0.956-1.82c-0.638-0.363-1.551-0.544-2.737-0.544H87.806z"/>
		<path fill="#fdfdff" d="M113.709,46.875c-0.205-0.64-0.425-1.297-0.661-1.972c-0.235-0.674-0.471-1.346-0.704-2.014h-7.191
			c-0.232,0.672-0.465,1.345-0.699,2.02c-0.233,0.675-0.451,1.331-0.653,1.966h-4.303c0.691-1.984,1.349-3.817,1.972-5.5
			c0.622-1.683,1.229-3.268,1.825-4.756c0.596-1.488,1.182-2.901,1.758-4.238c0.578-1.336,1.178-2.643,1.8-3.918h3.93
			c0.604,1.275,1.201,2.582,1.788,3.918c0.587,1.337,1.179,2.75,1.775,4.238c0.596,1.488,1.205,3.073,1.828,4.756
			c0.623,1.683,1.28,3.516,1.976,5.5H113.709z M108.729,32.633c-0.093,0.267-0.228,0.631-0.406,1.092
			c-0.178,0.46-0.381,0.992-0.608,1.596c-0.227,0.604-0.482,1.267-0.763,1.992c-0.281,0.726-0.567,1.485-0.856,2.281h5.265
			c-0.281-0.798-0.555-1.56-0.818-2.288c-0.264-0.727-0.516-1.393-0.753-1.997c-0.238-0.604-0.446-1.135-0.626-1.595
			C108.984,33.255,108.839,32.895,108.729,32.633z"/>
		<path fill="#fdfdff" d="M131.367,46.875c-0.373-0.6-0.813-1.248-1.319-1.942c-0.506-0.696-1.052-1.397-1.637-2.105
			c-0.586-0.706-1.197-1.384-1.836-2.033c-0.64-0.648-1.278-1.222-1.918-1.719v7.799h-4.145V28.462h4.145v6.92
			c1.066-1.119,2.148-2.29,3.248-3.512s2.115-2.358,3.046-3.408h4.918c-1.253,1.492-2.513,2.927-3.781,4.304
			c-1.268,1.377-2.603,2.764-4.003,4.159c1.474,1.229,2.895,2.686,4.263,4.372c1.367,1.687,2.684,3.547,3.947,5.579H131.367z"/>
		<path fill="#fdfdff" d="M151.702,46.875c-0.205-0.64-0.425-1.297-0.661-1.972c-0.235-0.674-0.47-1.346-0.705-2.014h-7.189
			c-0.233,0.672-0.467,1.345-0.7,2.02c-0.233,0.675-0.451,1.331-0.652,1.966h-4.305c0.693-1.984,1.351-3.817,1.973-5.5
			c0.622-1.683,1.229-3.268,1.825-4.756c0.596-1.488,1.182-2.901,1.759-4.238c0.578-1.336,1.178-2.643,1.8-3.918h3.929
			c0.605,1.275,1.201,2.582,1.789,3.918c0.587,1.337,1.178,2.75,1.774,4.238c0.596,1.488,1.205,3.073,1.829,4.756
			c0.622,1.683,1.28,3.516,1.974,5.5H151.702z M146.723,32.633c-0.093,0.267-0.229,0.631-0.406,1.092s-0.381,0.992-0.608,1.596
			s-0.481,1.267-0.762,1.992c-0.282,0.726-0.567,1.485-0.858,2.281h5.267c-0.282-0.798-0.555-1.56-0.819-2.288
			c-0.265-0.727-0.516-1.393-0.752-1.997c-0.238-0.604-0.447-1.135-0.626-1.595C146.978,33.255,146.833,32.895,146.723,32.633z"/>
		<path fill="#fdfdff" d="M158.506,28.462h4.145v18.413h-4.145V28.462z"/>
		<path fill="#fdfdff" d="M171.923,43.712c0.585,0,1.067-0.048,1.448-0.146c0.381-0.097,0.687-0.23,0.917-0.398
			c0.229-0.167,0.39-0.367,0.478-0.597c0.089-0.23,0.133-0.487,0.133-0.771c0-0.602-0.283-1.103-0.85-1.501
			c-0.567-0.399-1.541-0.827-2.923-1.289c-0.603-0.213-1.205-0.456-1.807-0.73c-0.603-0.274-1.143-0.62-1.621-1.036
			c-0.478-0.417-0.867-0.922-1.169-1.515c-0.301-0.594-0.451-1.316-0.451-2.166c0-0.851,0.159-1.615,0.478-2.298
			c0.319-0.681,0.771-1.261,1.355-1.74c0.585-0.479,1.293-0.846,2.126-1.102c0.832-0.258,1.771-0.386,2.816-0.386
			c1.239,0,2.311,0.132,3.215,0.398c0.902,0.265,1.646,0.558,2.231,0.877l-1.195,3.268c-0.515-0.267-1.085-0.5-1.715-0.704
			c-0.629-0.203-1.385-0.306-2.271-0.306c-0.991,0-1.704,0.138-2.139,0.413c-0.434,0.274-0.65,0.694-0.65,1.261
			c0,0.337,0.08,0.621,0.238,0.85c0.16,0.23,0.386,0.438,0.679,0.625c0.292,0.186,0.628,0.354,1.01,0.505
			c0.38,0.151,0.801,0.306,1.262,0.465c0.956,0.354,1.789,0.704,2.498,1.049c0.708,0.346,1.296,0.749,1.766,1.21
			c0.47,0.459,0.82,1.001,1.051,1.62c0.229,0.621,0.344,1.373,0.344,2.258c0,1.719-0.602,3.052-1.806,3.999
			c-1.205,0.948-3.021,1.422-5.447,1.422c-0.814,0-1.551-0.049-2.205-0.146c-0.655-0.098-1.235-0.217-1.74-0.359
			c-0.505-0.141-0.938-0.291-1.302-0.451s-0.669-0.31-0.917-0.452l1.169-3.294c0.549,0.301,1.227,0.571,2.033,0.811
			C169.766,43.593,170.754,43.712,171.923,43.712z"/>
		<path fill="#fdfdff" d="M195.49,28.462v3.534h-5.553v14.878h-4.146V31.996h-5.553v-3.534H195.49z"/>
		<path fill="#fdfdff" d="M198.147,28.462h4.146v18.413h-4.146V28.462z"/>
	</g>
	<path fill-rule="evenodd" clip-rule="evenodd" fill="#fdfdff" d="M50.154,58.539l0.573-4.608l-10.495-2.757l-3.768-13.919
		l3.857-9.628c2.738-0.205,4.836-1.406,5.074-3.129L47.92,7.62L33.142,5.411l-0.135,0.903L7.045,0.007L7.028,0L7.027,0.002L7.018,0
		L7,0.07L0.696,15.8c-2.319,5.759,1.583,9.63,5.483,11.22l11.771,4.692h-0.16l-0.001,23.744l-3.949,0.577v8.099h10.569v-2.316h9.114
		v2.293h10.816v-7.881l-2.857-0.438l-0.716-2.646L50.154,58.539z M2.501,16.63l1.586,3.831l4.237-3.85l1.783,7.317l5.959-5.442
		l2.458,4.447l1.722-0.952l-3.665-6.627l-5.35,4.884l-1.78-7.31l-4.616,4.196l-1.289-3.116L7.719,3.595l8.159,3.739l2.599-2.512
		L32.713,8.28l-2.095,14.008c-0.309,2.219,3.326,4.72,7.203,5.258c0.13,0.017,0.257,0.028,0.385,0.041l-3.479,8.682L7.161,25.277
		C1.034,22.811,1.971,18.199,2.501,16.63z M21.865,61.547h-5.402v-3.458l5.402-0.47V61.547z M41.396,61.577h-5.202v-3.926
		l5.202,0.871V61.577z M33.521,54.569v4.741l-9.114-0.002v-4.82l-4.114,0.601V32.646l13.82,5.508l4.662,17.22L33.521,54.569z"/>
	<path fill-rule="evenodd" clip-rule="evenodd" fill="#fdfdff" d="M26.722,14.022c0-0.758,0.568-1.373,1.271-1.373
		s1.273,0.615,1.273,1.373c0,0.004-0.001,0.008-0.001,0.011c0.267-0.43,0.399-0.858,0.424-1.276
		c-0.636-1.309-1.057-2.287-2.376-2.397c-1.41-0.119-3.759,1.892-4.637,2.696c0.05,0.317,0.155,0.627,0.321,0.923
		c0.291,0.843,0.948,1.526,2.028,1.806c0.734,0.19,1.798-0.016,2.68-0.429C27.143,15.216,26.722,14.673,26.722,14.022z"/>
</g>
</svg>
